# xmcd
#
# Track frame offsets:
#	150
#	15613
#	37715
#	66006
#	89195
#	118150
#	151597
#	172738
#	196729
#	214267
#	233652
#	260810
#	277003
#	305415
#	329425
#
# Disc length: 4705 seconds
#
# Revision: 0
# Processed by: cddbd v1.5.2PL0 Copyright (c) Steve Scherf et al.
# Submitted via: EZCDAudioConverter 3.1.4.1
#
DISCID=ca125f0f
DTITLE=Philipp Fankhauser - Unplugged - Live At Mühle Hunziken
DYEAR=2016
DGENRE=Blues
TTITLE0=If You Ain't Been To Houston 
TTITLE1=Going To Dallas 
TTITLE2=Too Little Too Late
TTITLE3=Try My Love
TTITLE4=Home Town (Thun)
TTITLE5=I Got A Love
TTITLE6=Love Man Riding
TTITLE7=God Bless The Child
TTITLE8=Drowning In The Sea Of Love
TTITLE9=I'll Be Around
TTITLE10=Stop and Forgive [CD Edit) 
TTITLE11=Gee Baby, Ain't I Good To You
TTITLE12=Everyday I Have The Blues 
TTITLE13=Time For Christ 
TTITLE14=Members Only
EXTD=
EXTT0=
EXTT1=
EXTT2=
EXTT3=
EXTT4=
EXTT5=
EXTT6=
EXTT7=
EXTT8=
EXTT9=
EXTT10=
EXTT11=
EXTT12=
EXTT13=
EXTT14=
PLAYORDER=
